<svg width="214" height="263" viewBox="0 0 214 263" fill="none" xmlns="http://www.w3.org/2000/svg">
<path fill-rule="evenodd" clip-rule="evenodd" d="M107.001 91C110.867 91 114.001 94.134 114.001 98V143.876L153.73 120.938C157.078 119.005 161.36 120.152 163.293 123.5C165.226 126.848 164.078 131.129 160.73 133.062L121 156L160.73 178.938C164.078 180.871 165.225 185.152 163.292 188.5C161.359 191.848 157.078 192.995 153.73 191.062L114.001 168.125V214C114.001 217.866 110.867 221 107.001 221C103.135 221 100.001 217.866 100.001 214V168.124L60.2714 191.062C56.9233 192.995 52.6422 191.848 50.7092 188.5C48.7762 185.152 49.9233 180.87 53.2714 178.938L93 156L53.2707 133.062C49.9227 131.13 48.7755 126.848 50.7085 123.5C52.6415 120.152 56.9227 119.005 60.2707 120.938L100.001 143.876V98C100.001 94.134 103.135 91 107.001 91Z" fill="#D8131D"/>
<path fill-rule="evenodd" clip-rule="evenodd" d="M118.834 30C118.943 29.3496 119 28.6814 119 28C119 21.3726 113.627 16 107 16C100.373 16 95 21.3726 95 28C95 28.6814 95.0568 29.3496 95.1659 30H118.834ZM79.0757 30C79.0255 29.3638 79 28.6976 79 28C79 12.536 91.536 0 107 0C122.464 0 135 12.536 135 28C135 28.6976 134.974 29.3638 134.924 30H154C158.418 30 162 33.5817 162 38V64.1988C193.153 82.9036 214 117.017 214 156C214 215.094 166.094 263 107 263C47.9055 263 0 215.094 0 156C0 117.436 20.4013 83.6368 51 64.8067V38C51 33.5817 54.5817 30 59 30H79.0757ZM193 156C193 123.804 175.307 95.7397 149.114 81H64.8855C38.6925 95.7397 21 123.804 21 156C21 203.496 59.5035 242 107 242C154.496 242 193 203.496 193 156ZM147 45.25H66V63.25H147V45.25Z" fill="#D8131D"/>
</svg>
