<svg width="24" height="24" viewBox="0 0 24 24" fill="none" xmlns="http://www.w3.org/2000/svg">
<g clip-path="url(#clip0_40000729_1258)">
<path d="M23.9683 0H0V23.9894H23.9683V0Z" fill="#252524"/>
<path d="M18.703 0.0423584C18.3646 0.380983 18.0263 0.719607 17.688 1.05823C17.8254 1.1958 17.9629 1.33336 18.0898 1.47093C18.3964 1.25929 18.7453 1.08998 19.1153 1.06881C19.4536 1.03707 19.792 1.12172 20.1091 1.25929C20.2254 1.3122 20.3417 1.38627 20.4686 1.40744C20.5955 1.40744 20.7012 1.28045 20.7435 1.16405C20.7858 1.0794 20.7435 0.984157 20.6801 0.931247C20.384 0.634951 20.0986 0.349237 19.8025 0.0529404" fill="white"/>
<path d="M23.1435 3.26984C23.0695 3.19577 22.9426 3.15344 22.8369 3.19577C22.7735 3.22752 22.6995 3.28043 22.6783 3.3545C22.636 3.50265 22.71 3.64021 22.7629 3.77778C22.9426 4.14815 23.0166 4.57143 22.9638 4.98413C22.9321 5.25926 22.8263 5.53439 22.6783 5.77778C22.636 5.83069 22.6043 5.89418 22.562 5.95767C22.71 6.08466 22.8263 6.23281 22.9743 6.35979C23.3021 6.02117 23.651 5.68254 23.9893 5.34392V4.12699C23.7039 3.84127 23.429 3.55556 23.1435 3.28043V3.26984Z" fill="white"/>
<path d="M10.5198 20.1482C10.192 20.4551 9.88542 20.7831 9.55767 21.1006C9.49423 21.1746 9.40965 21.2381 9.37793 21.3334C9.37793 21.4286 9.45194 21.5133 9.53652 21.5239C9.6211 21.5239 9.68454 21.4604 9.76912 21.4392C9.84313 21.4392 9.89599 21.4921 9.94885 21.5344C10.5409 22.127 11.1224 22.7196 11.7145 23.3122C11.8625 23.4709 12.0211 23.6085 12.1585 23.7672C12.222 23.8413 12.1797 23.926 12.1585 24H12.6237C12.9198 23.7037 13.2052 23.418 13.5013 23.1323C12.5074 22.1376 11.5136 21.1535 10.5304 20.1588L10.5198 20.1482Z" fill="white"/>
<path d="M23.7884 12.1799C23.6933 12.127 23.6299 12.0318 23.5558 11.9683C22.7418 11.1535 21.9382 10.3387 21.1136 9.53442C20.7858 9.86247 20.4686 10.1905 20.1409 10.508C20.31 10.709 20.5109 10.8783 20.6906 11.0688C21.3462 11.7249 22.0017 12.381 22.6572 13.0265C22.71 13.0794 22.7735 13.1323 22.8052 13.2064C22.8052 13.291 22.7523 13.3545 22.7312 13.4392C22.6995 13.5238 22.7735 13.6297 22.858 13.6402C22.9426 13.6508 23.0061 13.5979 23.0589 13.545C23.3655 13.2381 23.6721 12.9312 23.9788 12.6244V12.1588C23.9153 12.1799 23.8413 12.2223 23.7779 12.1905H23.7884V12.1799Z" fill="white"/>
<path d="M6.96737 22.3809C7.07309 22.2857 7.16825 22.1799 7.18939 22.0317C7.21054 21.8624 7.04138 21.6931 6.87221 21.7249C6.73477 21.7566 6.61847 21.8624 6.47045 21.8624C6.32243 21.8624 6.31186 21.7884 6.24842 21.7249C4.96913 20.4444 3.68983 19.164 2.42111 17.8942C2.33653 17.8095 2.2308 17.7249 2.19908 17.5979C2.19908 17.4497 2.29424 17.3333 2.33653 17.1958C2.38939 17.0264 2.2308 16.8466 2.05107 16.8571C1.93477 16.8571 1.82904 16.9312 1.74446 17.0159C1.19468 17.5767 0.623754 18.127 0.0739746 18.6878V19.5026C0.179701 19.4603 0.274856 19.3968 0.380583 19.3968C0.518027 19.418 0.592036 19.545 0.68719 19.6296C1.95591 20.8889 3.21406 22.1481 4.47221 23.4074C4.54622 23.4815 4.6308 23.5661 4.64138 23.6719C4.64138 23.7778 4.57794 23.873 4.53565 23.9682H5.36032L6.96737 22.3598V22.3809Z" fill="white"/>
<path d="M9.61056 2.42326C9.33567 2.70898 9.05021 2.97353 8.78589 3.25924C8.8599 3.32273 8.92333 3.39681 8.99734 3.4603C9.07135 3.4603 9.13479 3.38623 9.19822 3.35448C9.47311 3.20633 9.81144 3.2275 10.0758 3.35448C10.1498 3.37564 10.2132 3.42855 10.2872 3.41797C10.3824 3.38623 10.4564 3.24866 10.3718 3.164C10.118 2.91004 9.8643 2.65607 9.61056 2.4021V2.42326Z" fill="white"/>
<path d="M10.2554 4.74078C10.3929 4.6667 10.562 4.6667 10.71 4.74078C10.8052 4.77252 10.8898 4.85718 10.9955 4.85718C11.1012 4.85718 11.1541 4.79369 11.1435 4.70903C11.1435 4.63496 11.0695 4.58205 11.0272 4.52914C10.7523 4.26459 10.4774 3.98945 10.2131 3.71432C10.1708 3.67199 10.118 3.61908 10.0545 3.62966C9.96996 3.62966 9.90652 3.74607 9.93824 3.83072C9.98053 3.94713 10.0651 4.05295 10.0863 4.17993C10.118 4.29633 10.0863 4.41273 10.0545 4.52914C10.1286 4.59263 10.2026 4.67728 10.2766 4.74078H10.2554Z" fill="white"/>
<path d="M7.39041 4.69836C7.3164 4.71953 7.26354 4.77244 7.21068 4.82535C6.88292 5.15339 6.5446 5.48143 6.21684 5.82006C6.14283 5.89413 6.11112 6.0317 6.21684 6.09519C6.33314 6.19043 6.44944 6.02112 6.57632 6.05286C6.63975 6.09519 6.69261 6.15868 6.75605 6.21159C7.02037 6.47614 7.29526 6.75127 7.57015 7.01582L7.24239 7.34387L7.46442 7.56609C7.57015 7.46027 7.68645 7.35445 7.79217 7.23805L8.712 8.15868C8.74372 8.19043 8.77543 8.22217 8.80715 8.2645C8.83887 8.37032 8.712 8.46556 8.74372 8.57138C8.76486 8.62429 8.79658 8.65604 8.84944 8.6772C8.93402 8.69836 9.00803 8.63487 9.07147 8.58196C9.39922 8.25392 9.72698 7.92588 10.0547 7.60842C10.097 7.55551 10.1499 7.51318 10.1605 7.43911C10.1922 7.34387 10.1076 7.24863 10.0124 7.25921C9.93843 7.28037 9.86442 7.33329 9.79041 7.33329C9.72698 7.33329 9.67411 7.26979 9.63182 7.22746C8.96574 6.5608 8.28909 5.88355 7.62301 5.21688C7.58072 5.17455 7.52786 5.12164 7.53843 5.05815C7.55958 4.9735 7.62301 4.89942 7.60187 4.81477C7.60187 4.73011 7.49614 4.68778 7.4327 4.70895H7.40098L7.39041 4.69836Z" fill="white"/>
<path d="M11.3657 5.8413C11.4186 5.92596 11.5032 5.98945 11.5666 6.06353C11.8521 5.77781 12.1481 5.4921 12.4336 5.1958C12.1798 4.94183 11.9155 4.68787 11.6618 4.42331C11.5983 4.34924 11.4714 4.35982 11.4292 4.44448C11.3763 4.52914 11.4292 4.61379 11.4609 4.69845C11.556 4.91009 11.5983 5.15347 11.556 5.3757C11.5349 5.54501 11.4503 5.68257 11.3657 5.83072V5.8413Z" fill="white"/>
<path d="M20.0564 3.42863C20.1833 3.58736 20.3419 3.71435 20.4793 3.86249C20.5956 3.80958 20.7225 3.75667 20.8494 3.75667C21.1031 3.75667 21.3463 3.84133 21.5577 3.96831C21.6635 4.02122 21.7586 4.08472 21.8749 4.08472C22.0124 4.08472 22.1392 3.93657 22.1287 3.799C22.1075 3.66144 21.9912 3.5662 21.8961 3.48154C21.3886 2.97361 20.8917 2.47625 20.3842 1.96831C20.2996 1.88366 20.215 1.77784 20.0881 1.76726C19.9718 1.75667 19.8767 1.84133 19.8344 1.92599C19.7815 2.05297 19.8344 2.20112 19.9084 2.30694C20.0458 2.53974 20.1621 2.79371 20.141 3.06884C20.141 3.18525 20.0776 3.30165 20.0353 3.40747L20.0564 3.42863Z" fill="white"/>
<path d="M7.63341 4.40213C7.59112 4.44446 7.5594 4.49737 7.54883 4.56086C7.54883 4.63494 7.61226 4.71959 7.68627 4.71959C7.76028 4.71959 7.86601 4.62436 7.96116 4.64552C8.03517 4.68785 8.08803 4.75134 8.1409 4.80425C8.7964 5.46033 9.45191 6.11642 10.1074 6.7725C10.1497 6.81483 10.2026 6.87832 10.1709 6.94182C10.1497 7.02647 10.0546 7.13229 10.1391 7.21695C10.2026 7.31219 10.34 7.28044 10.4035 7.21695C10.7312 6.88891 11.059 6.56086 11.3867 6.23282C10.8158 5.66139 10.2449 5.08996 9.67394 4.51854C9.10301 3.94711 8.95499 3.78838 8.58495 3.42859C8.26777 3.75663 7.94002 4.07409 7.61226 4.40213H7.63341Z" fill="white"/>
<path d="M17.3286 1.42858C16.726 2.04234 16.1127 2.64551 15.5101 3.25927C15.4149 3.36509 15.3515 3.52382 15.4149 3.66138C15.4678 3.73546 15.5418 3.80953 15.637 3.80953C15.8061 3.8307 15.9224 3.67197 16.0916 3.67197C16.2608 3.67197 16.2819 3.75662 16.3559 3.82011C17.6563 5.1217 18.9568 6.42329 20.2467 7.71429C20.3101 7.77779 20.3841 7.85186 20.3841 7.95768C20.3841 8.11641 20.2467 8.23281 20.2467 8.38096C20.2361 8.53969 20.3841 8.67726 20.5427 8.66668C20.6484 8.66668 20.7541 8.5926 20.8282 8.51853C21.4414 7.90477 22.0546 7.29101 22.6678 6.67726C20.9233 4.92064 19.1682 3.17461 17.4132 1.418C17.392 1.37567 17.3497 1.40742 17.3286 1.418V1.42858Z" fill="white"/>
<path d="M14.9816 3.89421C14.8864 3.89421 14.8019 3.9577 14.7278 4.02119C14.1041 4.63495 13.4908 5.25929 12.867 5.88363C13.364 6.82542 13.882 7.75664 14.3789 8.69844H14.4107C14.4001 8.69844 14.3789 8.73019 14.3684 8.75135C14.3367 8.7196 14.3049 8.69844 14.2732 8.67728C13.3322 8.21167 12.3913 7.76722 11.4503 7.30161C10.8477 7.90479 10.245 8.50796 9.64238 9.10056C9.57894 9.16405 9.51551 9.23812 9.49436 9.33336C9.45207 9.47093 9.54722 9.60849 9.66352 9.67199C9.76925 9.70373 9.87498 9.67198 9.95956 9.59791C10.0441 9.545 10.1181 9.44976 10.2239 9.46035C10.5516 9.50267 10.8477 9.67199 11.1437 9.82013C13.0045 10.7408 14.8759 11.672 16.7367 12.5926C16.8001 12.5291 16.8635 12.4551 16.9375 12.3916C16.927 12.3598 16.9164 12.3387 16.8952 12.3069C15.9648 10.5715 15.0239 8.84659 14.0935 7.11114C15.2248 8.23283 16.3455 9.36511 17.4767 10.4974C17.5296 10.5609 17.593 10.6244 17.593 10.709C17.593 10.8889 17.4344 11.0159 17.4556 11.1958C17.4767 11.3334 17.6036 11.4498 17.7411 11.4392C17.8679 11.4392 17.9737 11.3651 18.0477 11.2805C18.6926 10.6349 19.3375 9.98945 19.9825 9.34394C20.0565 9.26987 20.1305 9.16405 20.1411 9.05823C20.1622 8.88892 19.993 8.73019 19.8344 8.75135C19.6864 8.77251 19.5807 8.88892 19.4221 8.88892C19.2635 8.88892 19.253 8.80426 19.1789 8.74077C17.8996 7.46034 16.6204 6.17992 15.3305 4.88892C15.2565 4.81484 15.1719 4.73019 15.1402 4.62437C15.1402 4.46564 15.2565 4.34923 15.2776 4.1905C15.3093 4.02119 15.1296 3.85188 14.971 3.88363L14.9816 3.89421Z" fill="white"/>
<path d="M19.9613 10.6879C19.771 10.8783 19.5807 11.0688 19.3904 11.2593C19.5807 11.4709 19.8027 11.672 20.0036 11.8731C19.8345 11.8307 19.6759 11.799 19.4961 11.799C19.0521 11.7778 18.6186 11.9577 18.2803 12.2434C18.3543 12.3175 18.4283 12.4022 18.5129 12.4656C18.5975 12.4339 18.682 12.4127 18.7666 12.4233C18.8618 12.4233 18.9358 12.4868 18.9992 12.5609C19.6547 13.2275 20.3208 13.8836 20.9869 14.5503C21.0715 14.635 21.1666 14.7196 21.1878 14.836C21.2089 14.9313 21.1666 15.0159 21.156 15.1111C21.2195 15.1958 21.3041 15.2593 21.3781 15.344C21.6424 15.0265 21.8327 14.6138 21.8327 14.1905C21.8327 13.7672 21.6635 13.3122 21.4098 12.9524C21.1878 12.6455 20.9129 12.3704 20.5957 12.1588C20.6168 12.0953 20.638 12.0318 20.6063 11.9683C20.5428 11.8413 20.4477 11.7355 20.3842 11.6191C20.2574 11.4074 20.1728 11.1641 20.2045 10.9101C20.1305 10.836 20.0565 10.7514 19.9719 10.6879H19.9613Z" fill="white"/>
<path d="M9.84308 19.3439C9.84308 19.1746 9.68449 19.0265 9.51533 19.0582C9.37788 19.09 9.26158 19.1958 9.11356 19.1958C8.96555 19.1958 8.96555 19.1323 8.90211 19.0688L5.03251 15.1958C4.94793 15.1111 4.85277 15.0265 4.8422 14.9101C4.8422 14.7725 4.93735 14.6561 4.97964 14.5291C5.03251 14.3598 4.87392 14.1799 4.69418 14.1905C4.58845 14.1905 4.4933 14.254 4.41929 14.3281C3.7955 14.963 3.16114 15.5873 2.53735 16.2117C2.45277 16.2963 2.34704 16.3916 2.31533 16.5186C2.25189 16.6984 2.42105 16.9101 2.61136 16.8783C2.75938 16.8466 2.88625 16.7302 3.04484 16.7408C3.16114 16.7725 3.23515 16.8678 3.31973 16.9418C3.85894 17.4815 4.39815 18.0212 4.94793 18.5609V18.6032C4.74704 18.7937 4.54616 18.9947 4.34528 19.2064C4.48273 19.3439 4.62017 19.4815 4.75762 19.6191C4.9585 19.4286 5.14881 19.217 5.34969 19.0265C5.38141 18.9947 5.41312 19.0371 5.43427 19.0582C6.00519 19.6402 6.58669 20.2117 7.16819 20.7937C7.22105 20.8572 7.29506 20.9312 7.30564 21.0265C7.30564 21.1852 7.17876 21.3016 7.15762 21.4498C7.15762 21.6085 7.28449 21.7461 7.43251 21.7461C7.58053 21.7461 7.66511 21.672 7.74969 21.5873L9.69506 19.6402C9.76907 19.5556 9.83251 19.4603 9.84308 19.3439Z" fill="white"/>
<path d="M21.304 9.34389C21.3674 9.42855 21.452 9.5132 21.5366 9.58728C21.8432 9.53437 22.1392 9.6931 22.3929 9.86241C22.4881 9.9259 22.5832 10.0211 22.6995 9.99997C22.8264 9.97881 22.9004 9.79892 22.8053 9.70368C22.4987 9.3968 22.1921 9.07934 21.8749 8.77246C21.6846 8.96294 21.5048 9.15341 21.304 9.33331V9.34389Z" fill="white"/>
<path d="M16.9164 14.1588C16.4723 14.2117 16.134 14.5292 15.8274 14.836C15.9014 14.9101 15.986 14.9842 16.06 15.0688C16.134 15.0265 16.2186 14.9736 16.3137 14.9842C16.4723 14.9842 16.5886 15.1112 16.7049 15.217L17.2653 15.7778C17.3604 15.8731 17.4556 15.9683 17.5085 16.0847C17.5507 16.2117 17.5085 16.3387 17.445 16.4445L17.6776 16.6773C17.8891 16.4657 18.1005 16.2434 18.238 15.9683C18.3754 15.6932 18.3966 15.3651 18.312 15.0688C18.5023 15.2911 18.7243 15.4815 18.9675 15.6297C19.3058 15.8413 19.697 15.9895 20.1093 15.9683C20.5217 15.9683 20.9234 15.7884 21.2406 15.5239C21.1666 15.4392 21.0926 15.3651 21.0186 15.2911C20.9234 15.3228 20.8177 15.3546 20.712 15.3334C20.6062 15.3016 20.5217 15.217 20.4477 15.1323C19.7816 14.4762 19.1261 13.8096 18.46 13.1429C18.3966 13.0794 18.3437 13.0159 18.3225 12.9313C18.3014 12.836 18.3437 12.7408 18.3648 12.6456C18.2908 12.5715 18.2062 12.4974 18.1428 12.4233C17.8891 12.7091 17.7199 13.0794 17.6882 13.4604C17.6565 13.8202 17.7516 14.1905 17.9102 14.508C17.6565 14.254 17.2864 14.1059 16.927 14.1588H16.9164Z" fill="white"/>
<path d="M8.34188 10.709C7.91897 10.8466 7.52778 11.0688 7.18945 11.3545V11.3863C7.29518 11.4921 7.40091 11.5979 7.49606 11.7038C7.52778 11.7249 7.5595 11.7884 7.61236 11.7672C7.73923 11.7249 7.8661 11.672 8.00355 11.6932C8.16214 11.6932 8.31016 11.799 8.42646 11.9154C9.66346 13.1641 10.911 14.4022 12.1586 15.6508C12.3278 15.8096 12.3912 16.0635 12.3278 16.2858C12.3278 16.3493 12.2749 16.4127 12.2749 16.4762C12.4018 16.6138 12.5392 16.7408 12.6767 16.8784C12.9833 16.5186 13.2265 16.0953 13.3533 15.6403C13.4908 15.1852 13.5119 14.6879 13.4168 14.2117C13.2582 13.3545 12.7718 12.5821 12.1692 11.9683C11.556 11.3334 10.7736 10.8149 9.90663 10.635C9.38857 10.5292 8.84937 10.5503 8.35245 10.709H8.34188Z" fill="white"/>
<path d="M15.9224 12.8465C15.8272 12.8148 15.7321 12.8465 15.6369 12.8783C15.4572 12.9418 15.2563 12.9418 15.0766 12.8783C14.8228 12.7831 14.5902 12.6243 14.3999 12.4338C14.051 12.0846 13.7127 11.746 13.3744 11.3968C13.3426 11.3651 13.3109 11.3439 13.2792 11.3227C12.8669 11.1217 12.4651 10.9206 12.0633 10.7196C11.9576 10.6666 11.8519 10.6032 11.7356 10.5714C11.8413 10.6878 11.947 10.7936 12.0528 10.8995C12.74 11.5873 13.4167 12.2645 14.1039 12.9524C14.2836 13.1746 14.4528 13.4286 14.4845 13.7143C14.5162 13.8836 14.4422 14.0529 14.3999 14.2116C14.347 14.3704 14.5162 14.5502 14.6748 14.5185C14.7911 14.5079 14.8863 14.4233 14.9708 14.3492C15.288 14.0423 15.5946 13.7354 15.9012 13.418C15.9964 13.3227 16.081 13.2063 16.0915 13.0688C16.0915 12.9629 16.0175 12.8677 15.9224 12.836V12.8465Z" fill="white"/>
<path d="M5.92071 6.13756C5.87842 6.15873 5.8467 6.19047 5.81499 6.2328C5.48723 6.56084 5.15948 6.88888 4.8423 7.21693C4.78944 7.26984 4.73657 7.33333 4.73657 7.4074C4.73657 7.48148 4.80001 7.54497 4.88459 7.54497C4.96917 7.54497 5.04318 7.47089 5.13833 7.47089C5.22292 7.50264 5.27578 7.57671 5.33922 7.62962C5.99472 8.28571 6.65023 8.94179 7.31631 9.60846C7.98239 10.2751 7.36917 9.67195 7.39032 9.71428C7.39032 9.80952 7.30574 9.89418 7.31631 9.98941C7.31631 10.0741 7.42203 10.127 7.50662 10.1058C7.58063 10.0847 7.63349 10.0212 7.68635 9.96825L8.66961 8.98412C8.74362 8.92063 8.77534 8.78306 8.69076 8.70899C8.55331 8.60317 8.39472 8.84656 8.26785 8.70899L6.18503 6.62433C6.15331 6.59259 6.11102 6.55026 6.11102 6.49735C6.11102 6.39153 6.20618 6.30687 6.17446 6.20105C6.14274 6.1164 6.02644 6.08465 5.95243 6.13756H5.92071Z" fill="white"/>
<path d="M11.3552 17.7883C11.7252 17.6402 12.0635 17.4391 12.3596 17.1851C12.2221 17.0476 12.0847 16.9206 11.9578 16.783C11.8098 16.8359 11.6512 16.8888 11.4926 16.8677C11.3129 16.8359 11.1648 16.7195 11.0485 16.5925C9.82211 15.365 8.60625 14.1481 7.37982 12.9206C7.22123 12.7619 7.13665 12.5291 7.20009 12.3068C7.20009 12.2222 7.27409 12.1481 7.25295 12.074C7.12608 11.9365 6.98863 11.8201 6.86176 11.6825C6.60802 12 6.38599 12.3492 6.24854 12.7301C6.04766 13.2486 6.01594 13.8306 6.13224 14.3809C6.29083 15.2063 6.75603 15.9365 7.32696 16.5396C7.95075 17.1851 8.72255 17.7142 9.61066 17.9153C10.1922 18.0423 10.8054 18.0105 11.3657 17.7989H11.3552V17.7883Z" fill="white"/>
<path d="M2.75959 9.29102C2.57986 9.46033 2.41069 9.64022 2.23096 9.80953C2.50585 10.0847 2.78074 10.3598 3.05563 10.6349C3.09792 10.6773 3.14021 10.7302 3.20364 10.7302C3.30937 10.7302 3.42567 10.6243 3.39395 10.5185C3.36223 10.4339 3.30937 10.3704 3.25651 10.2963C3.09792 10.0635 2.9499 9.78837 2.99219 9.50266C2.91818 9.43916 2.85475 9.33334 2.77016 9.3016H2.75959V9.29102Z" fill="white"/>
<path d="M3.01322 9.02641C2.9815 9.05815 2.96035 9.0899 2.93921 9.12165C3.74273 9.9153 4.53568 10.7195 5.33921 11.5132C5.3815 11.5555 5.43436 11.5978 5.43436 11.6719C5.43436 11.746 5.37093 11.8201 5.37093 11.8941C5.37093 11.9682 5.43436 12.0423 5.51894 12.0423C5.60353 12.0423 5.64582 12 5.69868 11.947C6.03701 11.6084 6.37533 11.2698 6.71366 10.9312C6.75595 10.8888 6.79824 10.8253 6.79824 10.7619C6.79824 10.6666 6.69251 10.582 6.60793 10.6243C6.51278 10.656 6.40705 10.7301 6.32247 10.6455C6.02643 10.3597 5.74097 10.0634 5.45551 9.77773L3.86961 8.19043C3.59472 8.46556 3.30925 8.75128 3.03436 9.02641H3.01322Z" fill="white"/>
<path d="M4.11266 7.93651C4.08094 7.96826 4.04922 7.98942 4.02808 8.03175C4.09151 8.10582 4.16552 8.16931 4.22896 8.24339C4.46156 8.21164 4.69416 8.2963 4.89504 8.4127C5.01134 8.47619 5.10649 8.57143 5.23336 8.63492C5.36023 8.69841 5.49768 8.55027 5.46596 8.43386C5.44482 8.37037 5.38138 8.32804 5.33909 8.27513C5.07477 8.02117 4.82103 7.74603 4.55671 7.49207C4.40869 7.64021 4.26068 7.78836 4.11266 7.93651Z" fill="white"/>
<path d="M14.8441 21.4286C14.8652 21.5027 14.9392 21.5239 15.0026 21.545C15.0661 21.5133 15.1295 21.4921 15.1824 21.4392C15.5207 21.09 15.8696 20.762 16.1974 20.4128C15.7639 19.9895 15.3304 19.545 14.9075 19.1217C14.4846 18.6985 13.7868 18.0001 13.2264 17.4392C12.8775 17.7884 12.5286 18.1376 12.1797 18.4868C12.0952 18.5609 12.074 18.709 12.1797 18.7831C12.3066 18.8678 12.4229 18.709 12.5498 18.7302C12.6767 18.8043 12.7718 18.9313 12.8775 19.0265L14.7066 20.8572C14.7806 20.9313 14.8652 21.0053 14.9181 21.1006C14.9286 21.217 14.8123 21.3122 14.8441 21.4286Z" fill="white"/>
<path d="M14.971 18.836C15.119 18.7619 15.2987 18.7619 15.4573 18.836C15.5631 18.8783 15.6582 18.9736 15.7851 18.963C15.8591 18.963 15.8908 18.8783 15.9331 18.8254C15.9014 18.6984 15.7851 18.6244 15.7005 18.5397L14.9076 17.746C14.8758 17.7143 14.8335 17.6826 14.7807 17.6614C14.675 17.6402 14.5798 17.7672 14.6221 17.873C14.6644 17.9894 14.749 18.0953 14.7807 18.2222C14.823 18.3492 14.7913 18.4868 14.7384 18.6032C14.823 18.6773 14.897 18.7619 14.9816 18.8466H14.971V18.836Z" fill="white"/>
<path d="M14.2942 16.3704C13.9876 16.6561 13.7021 16.963 13.3955 17.2593L13.6281 17.4921C13.7656 17.4074 13.9136 17.3227 14.0722 17.291C14.3259 17.2275 14.5902 17.291 14.8228 17.3968C14.8757 17.418 14.9391 17.4603 15.0026 17.4497C15.0977 17.4074 15.1929 17.2804 15.0977 17.1852C14.8334 16.91 14.5585 16.6455 14.2836 16.3704H14.2942Z" fill="white"/>
<path d="M17.2969 19.3228C17.0326 19.0477 16.7471 18.7725 16.4828 18.4974C16.4193 18.4233 16.2925 18.4339 16.2396 18.5186C16.1762 18.6138 16.2396 18.7196 16.2819 18.8149C16.4616 19.1958 16.4299 19.6826 16.155 20.0106C16.229 20.0847 16.3136 20.1588 16.3771 20.2434C16.6942 19.9471 16.9903 19.6297 17.2969 19.3334V19.3228Z" fill="white"/>
<path d="M17.5717 19.0477L18.629 17.9895C18.6924 17.926 18.777 17.8519 18.777 17.7566C18.777 17.6614 18.7241 17.6191 18.6607 17.5979C18.555 17.5768 18.4704 17.6826 18.3541 17.672C18.3012 17.672 18.2589 17.6191 18.2272 17.5873L16.5356 15.8942C16.2396 15.6085 15.9541 15.3016 15.6581 15.0265C15.3303 15.3545 14.992 15.6932 14.6537 16.0212C14.6008 16.0741 14.5374 16.1482 14.5374 16.2328C14.5374 16.3175 14.6114 16.381 14.6854 16.3916C14.7911 16.381 14.8757 16.2857 14.9814 16.3175C15.0448 16.3492 15.0871 16.4127 15.14 16.4551L17.3285 18.6455C17.4343 18.7514 17.2334 18.8783 17.3074 18.9947C17.3603 19.09 17.4977 19.1323 17.5823 19.0477H17.5717Z" fill="white"/>
<path d="M13.6706 22.9418C14.0089 22.6031 14.1886 22.127 14.1886 21.6613C14.1886 21.1957 14.03 20.8465 13.7869 20.5185C13.586 20.2434 13.3111 20.0106 13.0256 19.8201C12.6556 19.5767 12.2115 19.418 11.7675 19.4497C11.3657 19.4709 10.9957 19.6719 10.7102 19.9576C10.7525 20.0635 10.8582 20.1164 10.9322 20.201C11.0062 20.1587 11.0908 20.1058 11.186 20.1164C11.3551 20.127 11.4926 20.2539 11.5983 20.3703L13.2899 22.0635C13.3957 22.1693 13.5014 22.2857 13.5225 22.4444C13.5225 22.5502 13.4802 22.6349 13.438 22.7196C13.512 22.7936 13.586 22.8783 13.6706 22.9524V22.9418Z" fill="white"/>
</g>
<defs>
<clipPath id="clip0_40000729_1258">
<rect width="24" height="24" fill="white"/>
</clipPath>
</defs>
</svg>
