<svg width="24" height="24" viewBox="0 0 24 24" fill="none" xmlns="http://www.w3.org/2000/svg">
<path d="M12 0C8.68629 0 6 2.68629 6 6V7.5C6 9.32534 6.81511 10.9603 8.10119 12.0608C4.65704 13.565 2.25 17.0014 2.25 21V24H4.5V21C4.5 16.8579 7.85786 13.5 12 13.5C16.1421 13.5 19.5 16.8579 19.5 21V24H21.75V21C21.75 17.0014 19.343 13.565 15.8988 12.0608C17.1849 10.9603 18 9.32534 18 7.5V6C18 2.68629 15.3137 0 12 0ZM12 11.25C9.92893 11.25 8.25 9.57107 8.25 7.5V6C8.25 3.92893 9.92893 2.25 12 2.25C14.0711 2.25 15.75 3.92893 15.75 6V7.5C15.75 9.57107 14.0711 11.25 12 11.25Z" fill="#8C8C8C"/>
</svg>
