<svg width="42" height="24" viewBox="0 0 42 24" fill="none" xmlns="http://www.w3.org/2000/svg">
<path fill-rule="evenodd" clip-rule="evenodd" d="M5.45454 4.36364H9.84777C12.0833 4.36364 13.0909 5.81518 13.0909 7.72511C13.0909 9.95572 11.784 11.1168 9.40653 11.1168H8.38277V15.2727H5.45454V4.36364ZM8.38277 9.06946H8.93416C9.67415 9.06946 10.0678 8.65698 10.0678 7.7405C10.0678 6.83884 9.67415 6.41096 8.93416 6.41096H8.38277V9.06946Z" fill="#8C8C8C"/>
<path d="M14.1818 6.7655H17.0936V8.11774H17.1267C17.4614 7.09586 18.2646 6.54545 19.1512 6.54545H19.6364V9.18746C19.3688 9.13993 19.135 9.12408 18.8837 9.12408C17.8126 9.12408 17.1938 9.51783 17.1938 10.6339V15.2727H14.1818V6.7655Z" fill="#8C8C8C"/>
<path fill-rule="evenodd" clip-rule="evenodd" d="M20.7273 10.9009C20.7273 13.2942 21.0206 15.2727 24.2726 15.2727C27.4018 15.2727 27.8182 13.0947 27.8182 10.9164C27.8182 8.52402 27.5248 6.54545 24.2726 6.54545C21.1434 6.54545 20.7273 8.72348 20.7273 10.9009ZM25.0433 10.9164C25.0433 13.0028 24.9047 13.4933 24.2726 13.4933C23.656 13.4933 23.5016 13.0028 23.5016 10.9164C23.5016 8.81534 23.656 8.32427 24.2726 8.32427C24.9047 8.32427 25.0433 8.81534 25.0433 10.9164Z" fill="#8C8C8C"/>
<path d="M36.3609 4.36364H34.6789L32.7807 8.18441L30.8962 4.36364H29.1251L31.8483 9.72734L28.9091 15.2727H30.5927L32.703 11.1622L34.7704 15.2727H36.5455L33.6051 9.72734L36.3609 4.36364Z" fill="#8C8C8C"/>
<path d="M5.45454 19.6364H28.3636V17.4545H5.45454V19.6364Z" fill="#8C8C8C"/>
<path fill-rule="evenodd" clip-rule="evenodd" d="M2.18182 0C0.976833 0 0 0.976833 0 2.18182V21.8182C0 23.0232 0.976832 24 2.18182 24H39.2727C40.4777 24 41.4545 23.0232 41.4545 21.8182V2.18182C41.4545 0.976833 40.4777 0 39.2727 0H2.18182ZM39.2727 21.8182V2.18182H2.18182L2.18182 21.8182H39.2727Z" fill="#8C8C8C"/>
</svg>
