<?xml version="1.0" encoding="UTF-8"?>
<svg id="Layer_1" xmlns="http://www.w3.org/2000/svg" version="1.1" viewBox="0 0 227 226.8">
  <!-- Generator: Adobe Illustrator 30.0.0, SVG Export Plug-In . SVG Version: 2.1.1 Build 123)  -->
  <defs>
    <style>
      .st0 {
        fill: #f96302;
      }

      .st1 {
        fill: #fff;
      }
    </style>
  </defs>
  <rect class="st0" width="226.7" height="226.7"/>
  <g>
    <path class="st1" d="M176.9.4c-3.2,3.2-6.4,6.4-9.6,9.6,1.3,1.3,2.6,2.6,3.8,3.9,2.9-2,6.2-3.6,9.7-3.8,3.2-.3,6.4.5,9.4,1.8,1.1.5,2.2,1.2,3.4,1.4,1.2,0,2.2-1.2,2.6-2.3.4-.8,0-1.7-.6-2.2-2.8-2.8-5.5-5.5-8.3-8.3"/>
    <path class="st1" d="M218.9,30.9c-.7-.7-1.9-1.1-2.9-.7-.6.3-1.3.8-1.5,1.5-.4,1.4.3,2.7.8,4,1.7,3.5,2.4,7.5,1.9,11.4-.3,2.6-1.3,5.2-2.7,7.5-.4.5-.7,1.1-1.1,1.7,1.4,1.2,2.5,2.6,3.9,3.8,3.1-3.2,6.4-6.4,9.6-9.6v-11.5c-2.7-2.7-5.3-5.4-8-8h0Z"/>
    <path class="st1" d="M99.5,190.4c-3.1,2.9-6,6-9.1,9-.6.7-1.4,1.3-1.7,2.2,0,.9.7,1.7,1.5,1.8.8,0,1.4-.6,2.2-.8.7,0,1.2.5,1.7.9,5.6,5.6,11.1,11.2,16.7,16.8,1.4,1.5,2.9,2.8,4.2,4.3.6.7.2,1.5,0,2.2h4.4c2.8-2.8,5.5-5.5,8.3-8.2-9.4-9.4-18.8-18.7-28.1-28.1h0Z"/>
    <path class="st1" d="M225,115.1c-.9-.5-1.5-1.4-2.2-2-7.7-7.7-15.3-15.4-23.1-23-3.1,3.1-6.1,6.2-9.2,9.2,1.6,1.9,3.5,3.5,5.2,5.3,6.2,6.2,12.4,12.4,18.6,18.5.5.5,1.1,1,1.4,1.7,0,.8-.5,1.4-.7,2.2-.3.8.4,1.8,1.2,1.9s1.4-.4,1.9-.9c2.9-2.9,5.8-5.8,8.7-8.7v-4.4c-.6.2-1.3.6-1.9.3h.1Z"/>
    <path class="st1" d="M65.9,211.5c1-.9,1.9-1.9,2.1-3.3.2-1.6-1.4-3.2-3-2.9-1.3.3-2.4,1.3-3.8,1.3s-1.5-.7-2.1-1.3c-12.1-12.1-24.2-24.2-36.2-36.2-.8-.8-1.8-1.6-2.1-2.8,0-1.4.9-2.5,1.3-3.8.5-1.6-1-3.3-2.7-3.2-1.1,0-2.1.7-2.9,1.5-5.2,5.3-10.6,10.5-15.8,15.8v7.7c1-.4,1.9-1,2.9-1,1.3.2,2,1.4,2.9,2.2,12,11.9,23.9,23.8,35.8,35.7.7.7,1.5,1.5,1.6,2.5,0,1-.6,1.9-1,2.8h7.8l15.2-15.2v.2Z"/>
    <path class="st1" d="M227,119.2h0"/>
    <path class="st1" d="M90.9,22.9c-2.6,2.7-5.3,5.2-7.8,7.9.7.6,1.3,1.3,2,1.9.7,0,1.3-.7,1.9-1,2.6-1.4,5.8-1.2,8.3,0,.7.2,1.3.7,2,.6.9-.3,1.6-1.6.8-2.4-2.4-2.4-4.8-4.8-7.2-7.2v.2Z"/>
    <path class="st1" d="M97,44.8c1.3-.7,2.9-.7,4.3,0,.9.3,1.7,1.1,2.7,1.1s1.5-.6,1.4-1.4c0-.7-.7-1.2-1.1-1.7-2.6-2.5-5.2-5.1-7.7-7.7-.4-.4-.9-.9-1.5-.8-.8,0-1.4,1.1-1.1,1.9.4,1.1,1.2,2.1,1.4,3.3.3,1.1,0,2.2-.3,3.3.7.6,1.4,1.4,2.1,2h-.2Z"/>
    <path class="st1" d="M69.9,44.4c-.7.2-1.2.7-1.7,1.2-3.1,3.1-6.3,6.2-9.4,9.4-.7.7-1,2,0,2.6,1.1.9,2.2-.7,3.4-.4.6.4,1.1,1,1.7,1.5,2.5,2.5,5.1,5.1,7.7,7.6l-3.1,3.1,2.1,2.1c1-1,2.1-2,3.1-3.1l8.7,8.7c.3.3.6.6.9,1,.3,1-.9,1.9-.6,2.9.2.5.5.8,1,1,.8.2,1.5-.4,2.1-.9,3.1-3.1,6.2-6.2,9.3-9.2.4-.5.9-.9,1-1.6.3-.9-.5-1.8-1.4-1.7-.7.2-1.4.7-2.1.7-.6,0-1.1-.6-1.5-1-6.3-6.3-12.7-12.7-19-19-.4-.4-.9-.9-.8-1.5.2-.8.8-1.5.6-2.3,0-.8-1-1.2-1.6-1h-.3Z"/>
    <path class="st1" d="M107.5,55.2c.5.8,1.3,1.4,1.9,2.1,2.7-2.7,5.5-5.4,8.2-8.2-2.4-2.4-4.9-4.8-7.3-7.3-.6-.7-1.8-.6-2.2.2-.5.8,0,1.6.3,2.4.9,2,1.3,4.3.9,6.4-.2,1.6-1,2.9-1.8,4.3h0Z"/>
    <path class="st1" d="M189.7,32.4c1.2,1.5,2.7,2.7,4,4.1,1.1-.5,2.3-1,3.5-1,2.4,0,4.7.8,6.7,2,1,.5,1.9,1.1,3,1.1,1.3,0,2.5-1.4,2.4-2.7-.2-1.3-1.3-2.2-2.2-3-4.8-4.8-9.5-9.5-14.3-14.3-.8-.8-1.6-1.8-2.8-1.9-1.1-.1-2,.7-2.4,1.5-.5,1.2,0,2.6.7,3.6,1.3,2.2,2.4,4.6,2.2,7.2,0,1.1-.6,2.2-1,3.2l.2.2Z"/>
    <path class="st1" d="M72.2,41.6c-.4.4-.7.9-.8,1.5,0,.7.6,1.5,1.3,1.5s1.7-.9,2.6-.7c.7.4,1.2,1,1.7,1.5,6.2,6.2,12.4,12.4,18.6,18.6.4.4.9,1,.6,1.6-.2.8-1.1,1.8-.3,2.6.6.9,1.9.6,2.5,0,3.1-3.1,6.2-6.2,9.3-9.3-5.4-5.4-10.8-10.8-16.2-16.2s-6.8-6.9-10.3-10.3c-3,3.1-6.1,6.1-9.2,9.2h.2Z"/>
    <path class="st1" d="M163.9,13.5c-5.7,5.8-11.5,11.5-17.2,17.3-.9,1-1.5,2.5-.9,3.8.5.7,1.2,1.4,2.1,1.4,1.6.2,2.7-1.3,4.3-1.3s1.8.8,2.5,1.4c12.3,12.3,24.6,24.6,36.8,36.8.6.6,1.3,1.3,1.3,2.3,0,1.5-1.3,2.6-1.3,4-.1,1.5,1.3,2.8,2.8,2.7,1,0,2-.7,2.7-1.4,5.8-5.8,11.6-11.6,17.4-17.4-16.5-16.6-33.1-33.1-49.7-49.7-.2-.4-.6-.1-.8,0h0Z"/>
    <path class="st1" d="M141.7,36.8c-.9,0-1.7.6-2.4,1.2-5.9,5.8-11.7,11.7-17.6,17.6,4.7,8.9,9.6,17.7,14.3,26.6h.3c-.1,0-.3.3-.4.5-.3-.3-.6-.5-.9-.7-8.9-4.4-17.8-8.6-26.7-13-5.7,5.7-11.4,11.4-17.1,17-.6.6-1.2,1.3-1.4,2.2-.4,1.3.5,2.6,1.6,3.2,1,.3,2,0,2.8-.7.8-.5,1.5-1.4,2.5-1.3,3.1.4,5.9,2,8.7,3.4,17.6,8.7,35.3,17.5,52.9,26.2.6-.6,1.2-1.3,1.9-1.9-.1-.3-.2-.5-.4-.8-8.8-16.4-17.7-32.7-26.5-49.1,10.7,10.6,21.3,21.3,32,32,.5.6,1.1,1.2,1.1,2,0,1.7-1.5,2.9-1.3,4.6.2,1.3,1.4,2.4,2.7,2.3,1.2,0,2.2-.7,2.9-1.5,6.1-6.1,12.2-12.2,18.3-18.3.7-.7,1.4-1.7,1.5-2.7.2-1.6-1.4-3.1-2.9-2.9-1.4.2-2.4,1.3-3.9,1.3s-1.6-.8-2.3-1.4c-12.1-12.1-24.2-24.2-36.4-36.4-.7-.7-1.5-1.5-1.8-2.5,0-1.5,1.1-2.6,1.3-4.1.3-1.6-1.4-3.2-2.9-2.9h0Z"/>
    <path class="st1" d="M188.8,101c-1.8,1.8-3.6,3.6-5.4,5.4h0c1.8,2,3.9,3.9,5.8,5.8-1.6-.4-3.1-.7-4.8-.7-4.2-.2-8.3,1.5-11.5,4.2.7.7,1.4,1.5,2.2,2.1.8-.3,1.6-.5,2.4-.4.9,0,1.6.6,2.2,1.3,6.2,6.3,12.5,12.5,18.8,18.8.8.8,1.7,1.6,1.9,2.7.2.9-.2,1.7-.3,2.6.6.8,1.4,1.4,2.1,2.2,2.5-3,4.3-6.9,4.3-10.9s-1.6-8.3-4-11.7c-2.1-2.9-4.7-5.5-7.7-7.5.2-.6.4-1.2.1-1.8-.6-1.2-1.5-2.2-2.1-3.3-1.2-2-2-4.3-1.7-6.7-.7-.7-1.4-1.5-2.2-2.1h-.1Z"/>
    <path class="st1" d="M93.1,182.8c0-1.6-1.5-3-3.1-2.7-1.3.3-2.4,1.3-3.8,1.3s-1.4-.6-2-1.2l-36.6-36.6c-.8-.8-1.7-1.6-1.8-2.7,0-1.3.9-2.4,1.3-3.6.5-1.6-1-3.3-2.7-3.2-1,0-1.9.6-2.6,1.3h0c-5.9,6-11.9,11.9-17.8,17.8-.8.8-1.8,1.7-2.1,2.9-.6,1.7,1,3.7,2.8,3.4,1.4-.3,2.6-1.4,4.1-1.3,1.1.3,1.8,1.2,2.6,1.9,5.1,5.1,10.2,10.2,15.4,15.3v.4c-1.9,1.8-3.8,3.7-5.7,5.7,1.3,1.3,2.6,2.6,3.9,3.9,1.9-1.8,3.7-3.8,5.6-5.6.3-.3.6.1.8.3,5.4,5.5,10.9,10.9,16.4,16.4.5.6,1.2,1.3,1.3,2.2,0,1.5-1.2,2.6-1.4,4,0,1.5,1.2,2.8,2.6,2.8s2.2-.7,3-1.5l18.4-18.4c.7-.8,1.3-1.7,1.4-2.8h0Z"/>
    <path class="st1" d="M201.5,88.3c.6.8,1.4,1.6,2.2,2.3,2.9-.5,5.7,1,8.1,2.6.9.6,1.8,1.5,2.9,1.3,1.2-.2,1.9-1.9,1-2.8-2.9-2.9-5.8-5.9-8.8-8.8-1.8,1.8-3.5,3.6-5.4,5.3h0Z"/>
    <path class="st1" d="M160,133.8c-4.2.5-7.4,3.5-10.3,6.4.7.7,1.5,1.4,2.2,2.2.7-.4,1.5-.9,2.4-.8,1.5,0,2.6,1.2,3.7,2.2l5.3,5.3c.9.9,1.8,1.8,2.3,2.9.4,1.2,0,2.4-.6,3.4l2.2,2.2c2-2,4-4.1,5.3-6.7,1.3-2.6,1.5-5.7.7-8.5,1.8,2.1,3.9,3.9,6.2,5.3,3.2,2,6.9,3.4,10.8,3.2,3.9,0,7.7-1.7,10.7-4.2-.7-.8-1.4-1.5-2.1-2.2-.9.3-1.9.6-2.9.4-1-.3-1.8-1.1-2.5-1.9-6.3-6.2-12.5-12.5-18.8-18.8-.6-.6-1.1-1.2-1.3-2-.2-.9.2-1.8.4-2.7-.7-.7-1.5-1.4-2.1-2.1-2.4,2.7-4,6.2-4.3,9.8h0c-.3,3.4.6,6.9,2.1,9.9-2.4-2.4-5.9-3.8-9.3-3.3h0Z"/>
    <path class="st1" d="M78.9,101.2c-4,1.3-7.7,3.4-10.9,6.1v.3c1,1,2,2,2.9,3,.3.2.6.8,1.1.6,1.2-.4,2.4-.9,3.7-.7,1.5,0,2.9,1,4,2.1,11.7,11.8,23.5,23.5,35.3,35.3,1.6,1.5,2.2,3.9,1.6,6,0,.6-.5,1.2-.5,1.8,1.2,1.3,2.5,2.5,3.8,3.8,2.9-3.4,5.2-7.4,6.4-11.7,1.3-4.3,1.5-9,.6-13.5-1.5-8.1-6.1-15.4-11.8-21.2-5.8-6-13.2-10.9-21.4-12.6-4.9-1-10-.8-14.7.7h0Z"/>
    <path class="st1" d="M150.6,121.4c-.9-.3-1.8,0-2.7.3-1.7.6-3.6.6-5.3,0-2.4-.9-4.6-2.4-6.4-4.2-3.3-3.3-6.5-6.5-9.7-9.8-.3-.3-.6-.5-.9-.7-3.9-1.9-7.7-3.8-11.5-5.7-1-.5-2-1.1-3.1-1.4,1,1.1,2,2.1,3,3.1,6.5,6.5,12.9,12.9,19.4,19.4,1.7,2.1,3.3,4.5,3.6,7.2.3,1.6-.4,3.2-.8,4.7-.5,1.5,1.1,3.2,2.6,2.9,1.1-.1,2-.9,2.8-1.6,3-2.9,5.9-5.8,8.8-8.8.9-.9,1.7-2,1.8-3.3,0-1-.7-1.9-1.6-2.2h0Z"/>
    <path class="st1" d="M56,58c-.4.2-.7.5-1,.9-3.1,3.1-6.2,6.2-9.2,9.3-.5.5-1,1.1-1,1.8s.6,1.3,1.4,1.3,1.5-.7,2.4-.7c.8.3,1.3,1,1.9,1.5,6.2,6.2,12.4,12.4,18.7,18.7s.5.6.7,1c0,.9-.8,1.7-.7,2.6,0,.8,1,1.3,1.8,1.1.7-.2,1.2-.8,1.7-1.3l9.3-9.3c.7-.6,1-1.9.2-2.6-1.3-1-2.8,1.3-4,0l-19.7-19.7c-.3-.3-.7-.7-.7-1.2,0-1,.9-1.8.6-2.8-.3-.8-1.4-1.1-2.1-.6h-.3Z"/>
    <path class="st1" d="M107.4,168.1c3.5-1.4,6.7-3.3,9.5-5.7-1.3-1.3-2.6-2.5-3.8-3.8-1.4.5-2.9,1-4.4.8-1.7-.3-3.1-1.4-4.2-2.6-11.6-11.6-23.1-23.1-34.7-34.7-1.5-1.5-2.3-3.7-1.7-5.8,0-.8.7-1.5.5-2.2-1.2-1.3-2.5-2.4-3.7-3.7-2.4,3-4.5,6.3-5.8,9.9h0c-1.9,4.9-2.2,10.4-1.1,15.6,1.5,7.8,5.9,14.7,11.3,20.4,5.9,6.1,13.2,11.1,21.6,13,5.5,1.2,11.3.9,16.6-1.1h-.1Z"/>
    <path class="st1" d="M26.1,87.8c-1.7,1.6-3.3,3.3-5,4.9,2.6,2.6,5.2,5.2,7.8,7.8.4.4.8.9,1.4.9,1,0,2.1-1,1.8-2-.3-.8-.8-1.4-1.3-2.1-1.5-2.2-2.9-4.8-2.5-7.5-.7-.6-1.3-1.6-2.1-1.9h-.1Z"/>
    <path class="st1" d="M28.5,85.3h0c-.3.3-.5.6-.7.9,7.6,7.5,15.1,15.1,22.7,22.6.4.4.9.8.9,1.5s-.6,1.4-.6,2.1.6,1.4,1.4,1.4,1.2-.4,1.7-.9c3.2-3.2,6.4-6.4,9.6-9.6.4-.4.8-1,.8-1.6,0-.9-1-1.7-1.8-1.3-.9.3-1.9,1-2.7.2-2.8-2.7-5.5-5.5-8.2-8.2l-15-15c-2.6,2.6-5.3,5.3-7.9,7.9h-.2Z"/>
    <path class="st1" d="M38.9,75c-.3.3-.6.5-.8.9.6.7,1.3,1.3,1.9,2,2.2-.3,4.4.5,6.3,1.6,1.1.6,2,1.5,3.2,2.1s2.5-.8,2.2-1.9c-.2-.6-.8-1-1.2-1.5-2.5-2.4-4.9-5-7.4-7.4-1.4,1.4-2.8,2.8-4.2,4.2Z"/>
    <polygon class="st1" points="111 99.9 111 99.9 111 99.9 111 99.9"/>
    <path class="st1" d="M140.4,202.5c.2.7.9.9,1.5,1.1.6-.3,1.2-.5,1.7-1,3.2-3.3,6.5-6.4,9.6-9.7-4.1-4-8.2-8.2-12.2-12.2s-10.6-10.6-15.9-15.9c-3.3,3.3-6.6,6.6-9.9,9.9h0c-.8.7-1,2.1,0,2.8,1.2.8,2.3-.7,3.5-.5,1.2.7,2.1,1.9,3.1,2.8l17.3,17.3c.7.7,1.5,1.4,2,2.3.1,1.1-1,2-.7,3.1h0Z"/>
    <path class="st1" d="M141.6,178c1.4-.7,3.1-.7,4.6,0,1,.4,1.9,1.3,3.1,1.2.7,0,1-.8,1.4-1.3-.3-1.2-1.4-1.9-2.2-2.7l-7.5-7.5c-.3-.3-.7-.6-1.2-.8-1-.2-1.9,1-1.5,2,.4,1.1,1.2,2.1,1.5,3.3.4,1.2.1,2.5-.4,3.6.8.7,1.5,1.5,2.3,2.3h-.1Z"/>
    <path class="st1" d="M135.2,154.7c-2.9,2.7-5.6,5.6-8.5,8.4h0l2.2,2.2c1.3-.8,2.7-1.6,4.2-1.9,2.4-.6,4.9,0,7.1,1,.5.2,1.1.6,1.7.5.9-.4,1.8-1.6.9-2.5-2.5-2.6-5.1-5.1-7.7-7.7h.1Z"/>
    <path class="st1" d="M163.6,182.6c-2.5-2.6-5.2-5.2-7.7-7.8-.6-.7-1.8-.6-2.3.2-.6.9,0,1.9.4,2.8,1.7,3.6,1.4,8.2-1.2,11.3.7.7,1.5,1.4,2.1,2.2,3-2.8,5.8-5.8,8.7-8.6h0Z"/>
    <path class="st1" d="M166.2,180l10-10c.6-.6,1.4-1.3,1.4-2.2s-.5-1.3-1.1-1.5c-1-.2-1.8.8-2.9.7-.5,0-.9-.5-1.2-.8l-16-16c-2.8-2.7-5.5-5.6-8.3-8.2-3.1,3.1-6.3,6.3-9.5,9.4-.5.5-1.1,1.2-1.1,2s.7,1.4,1.4,1.5c1-.1,1.8-1,2.8-.7.6.3,1,.9,1.5,1.3l20.7,20.7c1,1-.9,2.2-.2,3.3.5.9,1.8,1.3,2.6.5h0Z"/>
    <path class="st1" d="M129.3,216.8c3.2-3.2,4.9-7.7,4.9-12.1s-1.5-7.7-3.8-10.8c-1.9-2.6-4.5-4.8-7.2-6.6-3.5-2.3-7.7-3.8-11.9-3.5h0c-3.8.2-7.3,2.1-10,4.8.4,1,1.4,1.5,2.1,2.3.7-.4,1.5-.9,2.4-.8,1.6.1,2.9,1.3,3.9,2.4l16,16c1,1,2,2.1,2.2,3.6,0,1-.4,1.8-.8,2.6.7.7,1.4,1.5,2.2,2.2h0Z"/>
  </g>
</svg>