<svg width="24" height="24" viewBox="0 0 24 24" fill="none" xmlns="http://www.w3.org/2000/svg">
<path fill-rule="evenodd" clip-rule="evenodd" d="M0 0.000610352H23.9977V23.997H0V0.000610352Z" fill="white"/>
<path fill-rule="evenodd" clip-rule="evenodd" d="M0.00113105 0.00100589C5.02096 0.00100589 10.0383 0.00100589 15.058 0.00100589C16.2701 0.00100589 17.4823 -0.00153883 18.6918 0.00344458C18.3566 0.343589 18.0138 0.681295 17.6763 1.02155C17.8097 1.16257 17.9508 1.29362 18.0844 1.4322C18.3919 1.22056 18.7396 1.05176 19.1177 1.02398C19.4578 0.988676 19.8006 1.07689 20.113 1.21304C20.2315 1.2634 20.3424 1.34398 20.4759 1.3566C20.6069 1.34907 20.7052 1.23318 20.7506 1.11718C20.7884 1.03671 20.753 0.940856 20.6902 0.882858C20.3978 0.588094 20.1029 0.298314 19.8131 0.00344458C21.2092 -0.00408356 22.6053 0.00344458 23.9989 0.00100589C23.9989 1.36169 24.0013 2.72492 23.9989 4.08815C23.7116 3.806 23.4318 3.51866 23.147 3.23651C23.0714 3.15826 22.9481 3.11797 22.8447 3.1659C22.7766 3.19866 22.7111 3.25157 22.6809 3.32462C22.643 3.47084 22.7087 3.6144 22.7666 3.74535C22.943 4.11836 23.0211 4.5392 22.9682 4.94996C22.9329 5.22967 22.8321 5.50428 22.6809 5.7437C22.6406 5.80159 22.6028 5.86203 22.5675 5.92268C22.7136 6.04854 22.8372 6.19973 22.9858 6.32326C23.3185 5.98057 23.6612 5.64541 23.9989 5.30516C23.9989 7.58056 24.0013 9.85607 23.9989 12.1315C23.9333 12.1542 23.8602 12.1996 23.7921 12.1667C23.7015 12.1088 23.6334 12.0231 23.5578 11.9501C22.7413 11.1386 21.9324 10.3196 21.1135 9.51084C20.7884 9.83593 20.4684 10.1635 20.1381 10.481C20.3121 10.6775 20.5062 10.8514 20.6876 11.0403C21.3428 11.6956 21.9979 12.3507 22.6557 13.0058C22.7111 13.0638 22.7766 13.1143 22.8068 13.1899C22.8169 13.273 22.759 13.3435 22.7363 13.4191C22.7036 13.5073 22.7742 13.6131 22.8674 13.6156C22.9505 13.6309 23.0211 13.5753 23.0741 13.5199C23.3815 13.2099 23.6914 12.9025 23.9989 12.595C23.9989 16.3951 23.9989 20.1975 23.9989 23.9974C20.1988 23.9974 16.396 23.9974 12.5934 23.9974C12.8857 23.7052 13.1781 23.4153 13.4704 23.123C12.4751 22.1302 11.4821 21.1374 10.4892 20.142C10.1642 20.4545 9.85173 20.7796 9.52917 21.0945C9.4611 21.1651 9.3855 21.2331 9.35284 21.3288C9.33767 21.422 9.42335 21.5103 9.51401 21.5154C9.5947 21.5053 9.66267 21.4523 9.74337 21.4347C9.81388 21.4298 9.86944 21.4851 9.9197 21.5305C10.5095 22.1251 11.1017 22.7149 11.6939 23.307C11.8424 23.4631 12.0038 23.6042 12.1423 23.7656C12.2054 23.8361 12.1626 23.9268 12.1273 23.9974C9.85173 23.9974 7.57865 23.9974 5.30578 23.9974C5.84242 23.4607 6.37928 22.924 6.91593 22.3872C7.01666 22.2915 7.12004 22.1807 7.1351 22.0345C7.15779 21.8657 6.98655 21.6968 6.81763 21.7321C6.6765 21.7597 6.56071 21.8707 6.41448 21.8707C6.32128 21.8631 6.25066 21.7951 6.18767 21.7346C4.90496 20.4545 3.6249 19.172 2.34473 17.8918C2.25905 17.8062 2.15577 17.7231 2.12545 17.5994C2.12046 17.4534 2.22374 17.3349 2.2616 17.2014C2.30942 17.0326 2.15069 16.8485 1.97923 16.8613C1.86089 16.8688 1.75507 16.9368 1.67448 17.02C1.12002 17.582 0.555591 18.1363 0.00113105 18.6982C-0.00141381 12.4665 0.00113105 6.2326 0.00113105 0.00100589" fill="#8C8C8C"/>
<path fill-rule="evenodd" clip-rule="evenodd" d="M17.3109 1.3844C17.3335 1.35927 17.3738 1.33647 17.3965 1.37433C19.1529 3.12806 20.9094 4.88445 22.6633 6.64073C22.0484 7.2556 21.4311 7.87291 20.8162 8.49032C20.7355 8.56592 20.6372 8.6289 20.5264 8.63643C20.3726 8.64916 20.2189 8.51047 20.2315 8.35418C20.2366 8.20054 20.3675 8.08211 20.3701 7.92582C20.3752 7.82753 20.2996 7.75458 20.2366 7.6864C18.9337 6.38626 17.6334 5.08358 16.3306 3.78068C16.2575 3.71017 16.1769 3.62195 16.066 3.62959C15.9022 3.63203 15.7787 3.78322 15.6125 3.76562C15.5166 3.76806 15.4385 3.69246 15.3907 3.61442C15.3251 3.47839 15.3856 3.31457 15.484 3.21384C16.0938 2.60396 16.7036 1.99418 17.3109 1.3844" fill="white"/>
<path fill-rule="evenodd" clip-rule="evenodd" d="M19.8402 1.89577C19.8906 1.80257 19.9863 1.7169 20.0996 1.73195C20.2256 1.74213 20.3163 1.8453 20.3994 1.92853C20.9034 2.43504 21.4073 2.939 21.9111 3.44296C22.0068 3.53627 22.1202 3.62692 22.1429 3.7655C22.1555 3.90907 22.0244 4.03758 21.8859 4.05274C21.77 4.05528 21.6642 3.9923 21.5635 3.93685C21.3493 3.81089 21.1075 3.71005 20.8529 3.72267C20.7219 3.72012 20.5961 3.77303 20.4776 3.82594C20.339 3.67729 20.1803 3.5438 20.0493 3.39005C20.0896 3.27671 20.1425 3.16834 20.1501 3.04726C20.1678 2.77274 20.0569 2.51064 19.9183 2.2813C19.8478 2.16795 19.7923 2.02672 19.8402 1.89577" fill="white"/>
<path fill-rule="evenodd" clip-rule="evenodd" d="M8.7334 3.23131C9.00563 2.94408 9.29281 2.67445 9.56483 2.38965C9.82434 2.64158 10.0762 2.89615 10.3307 3.15063C10.4139 3.23131 10.3383 3.36735 10.2451 3.40011C10.167 3.41019 10.0989 3.35728 10.0284 3.33204C9.75639 3.19855 9.41875 3.1835 9.14673 3.3296C9.07613 3.35982 9.01814 3.42026 8.94255 3.43288C8.86697 3.37244 8.804 3.29684 8.7334 3.23131" fill="white"/>
<path fill-rule="evenodd" clip-rule="evenodd" d="M8.56311 3.39233C8.93349 3.75019 9.29136 4.12065 9.65676 4.48094C10.2288 5.05043 10.7982 5.62501 11.3728 6.1945C11.0452 6.52711 10.7151 6.85474 10.385 7.18227C10.3169 7.25776 10.1809 7.29063 10.1154 7.19733C10.0348 7.11166 10.1229 7.00584 10.1481 6.91762C10.1784 6.85209 10.1255 6.7942 10.0826 6.74893C9.42242 6.09112 8.76458 5.43341 8.10695 4.77327C8.0465 4.71782 7.99603 4.64985 7.92297 4.612C7.82224 4.58931 7.74409 4.68007 7.6458 4.68516C7.57019 4.67752 7.49968 4.60203 7.50975 4.52378C7.51474 4.46334 7.55005 4.41043 7.59288 4.3676C7.91544 4.04251 8.24309 3.72251 8.56311 3.39233" fill="white"/>
<path fill-rule="evenodd" clip-rule="evenodd" d="M9.87934 3.79568C9.84669 3.71255 9.90457 3.61182 9.99277 3.5992C10.0583 3.58913 10.1112 3.63939 10.1566 3.68233C10.4286 3.9544 10.7006 4.22913 10.9753 4.49876C11.0231 4.55167 11.0911 4.59949 11.0962 4.67764C11.1063 4.75578 11.0307 4.83138 10.9501 4.82374C10.8442 4.82374 10.7637 4.74062 10.6679 4.70531C10.5268 4.63989 10.3555 4.6348 10.217 4.7104C10.1439 4.63734 10.0708 4.56174 9.99521 4.49367C10.0281 4.38277 10.0583 4.26444 10.0305 4.14844C10.0104 4.01749 9.91962 3.91666 9.87934 3.79568" fill="white"/>
<path fill-rule="evenodd" clip-rule="evenodd" d="M14.7038 3.9925C14.7719 3.92443 14.8575 3.87407 14.9533 3.86145C15.122 3.83632 15.2985 4.00003 15.2658 4.17138C15.2431 4.32258 15.1171 4.44345 15.1271 4.60239C15.1523 4.71308 15.2431 4.78868 15.3161 4.86693C16.6039 6.15202 17.8916 7.43456 19.1742 8.72219C19.2448 8.78527 19.3153 8.8684 19.4161 8.8684C19.5673 8.8684 19.6832 8.75506 19.8269 8.72971C19.9932 8.70215 20.157 8.86586 20.1368 9.03222C20.1268 9.14556 20.0587 9.24385 19.9807 9.32189C19.3329 9.96698 18.6878 10.6172 18.0402 11.2622C17.9571 11.3454 17.8513 11.421 17.7278 11.421C17.5916 11.4285 17.4606 11.3127 17.443 11.1791C17.4253 11.0027 17.5891 10.8716 17.5841 10.6952C17.5765 10.6121 17.5186 10.5441 17.4632 10.4836C16.3317 9.35476 15.2027 8.22332 14.0713 7.09441C15.0062 8.83055 15.9487 10.5618 16.8836 12.2979C16.8986 12.3231 16.9113 12.3509 16.9239 12.3811C16.8559 12.4439 16.7904 12.512 16.7249 12.5801C14.8525 11.6579 12.9826 10.7254 11.1128 9.80072C10.818 9.65461 10.5257 9.48327 10.1931 9.44298C10.0821 9.42771 10.0065 9.51858 9.92596 9.57647C9.84272 9.642 9.7318 9.68229 9.62863 9.64953C9.5051 9.59418 9.41942 9.44796 9.45728 9.31436C9.48241 9.22371 9.54539 9.14811 9.61092 9.08248C10.2158 8.48033 10.818 7.87564 11.4229 7.27583C12.3652 7.73696 13.3102 8.18801 14.2553 8.64924C14.2855 8.67182 14.3182 8.69451 14.3459 8.72473C14.3611 8.70702 14.3737 8.68942 14.3888 8.67182L14.3535 8.67681C13.8571 7.73187 13.3355 6.79954 12.839 5.8546C13.4639 5.23475 14.0814 4.61236 14.7038 3.9925" fill="white"/>
<path fill-rule="evenodd" clip-rule="evenodd" d="M11.3946 4.41812C11.44 4.335 11.5685 4.32492 11.6289 4.39543C11.8833 4.65245 12.1429 4.90947 12.3998 5.16659C12.1126 5.45626 11.8253 5.74361 11.5333 6.03084C11.4678 5.95524 11.3795 5.8948 11.3291 5.80659C11.4122 5.66546 11.5004 5.52179 11.5231 5.35554C11.5659 5.12619 11.5282 4.88434 11.4299 4.6727C11.4021 4.59201 11.3417 4.49881 11.3946 4.41812" fill="white"/>
<path fill-rule="evenodd" clip-rule="evenodd" d="M7.16457 4.79631C7.21494 4.7434 7.2704 4.68795 7.34345 4.67035C7.41662 4.65529 7.50728 4.70057 7.51735 4.78115C7.53506 4.86937 7.46953 4.94253 7.45193 5.02809C7.44175 5.09617 7.49721 5.14409 7.5375 5.18947C8.2104 5.86213 8.88065 6.53499 9.55355 7.20521C9.59894 7.24815 9.64676 7.30106 9.71229 7.31612C9.79288 7.30859 9.86085 7.25568 9.9391 7.23808C10.0349 7.2279 10.123 7.33128 10.0927 7.42193C10.0802 7.49001 10.0273 7.54048 9.98194 7.5883C9.65429 7.91593 9.32664 8.24346 8.99909 8.56854C8.9412 8.62654 8.8656 8.68698 8.77981 8.66683C8.73199 8.64658 8.6917 8.60884 8.67399 8.56102C8.64886 8.45011 8.7673 8.35935 8.73952 8.24844C8.71439 8.20571 8.67908 8.17284 8.64631 8.13764C8.33892 7.8327 8.03396 7.52277 7.72402 7.21793C7.61565 7.32873 7.50728 7.4371 7.39637 7.54546C7.32076 7.47241 7.24516 7.39924 7.17465 7.32121C7.28545 7.21284 7.39393 7.10204 7.50484 6.99357C7.23254 6.72659 6.96289 6.4543 6.69335 6.18467C6.63535 6.12932 6.58498 6.06889 6.51691 6.02859C6.39348 5.9882 6.27504 6.16209 6.1566 6.06634C6.06074 5.99838 6.09107 5.86213 6.16922 5.79162C6.49931 5.45646 6.83438 5.12893 7.16457 4.79631" fill="white"/>
<path fill-rule="evenodd" clip-rule="evenodd" d="M5.87428 6.10397C5.94999 6.05594 6.06334 6.08626 6.09854 6.17194C6.13385 6.27521 6.04065 6.36343 6.0381 6.46426C6.03556 6.51717 6.0784 6.55492 6.11116 6.59022C6.80919 7.28833 7.50479 7.98622 8.20282 8.68167C8.32868 8.8177 8.49007 8.58338 8.62611 8.68421C8.71433 8.75483 8.68411 8.8933 8.60851 8.95883C8.28086 9.28901 7.95077 9.61399 7.62567 9.94406C7.57275 9.99453 7.51984 10.055 7.44678 10.0777C7.36609 10.1004 7.2678 10.0499 7.25783 9.96431C7.24267 9.86359 7.33343 9.78534 7.32834 9.68705C7.31562 9.64421 7.28805 9.60901 7.25783 9.57624C6.59755 8.91865 5.93726 8.2584 5.27952 7.59815C5.21664 7.54025 5.16373 7.46709 5.08049 7.43687C4.98983 7.43189 4.91423 7.49996 4.82601 7.50993C4.75041 7.51247 4.68488 7.4444 4.68233 7.37145C4.6748 7.2932 4.73026 7.23033 4.78317 7.17742C5.11071 6.84979 5.43826 6.52215 5.76347 6.19463C5.79867 6.16186 5.83144 6.1291 5.87428 6.10397" fill="white"/>
<path fill-rule="evenodd" clip-rule="evenodd" d="M4.05284 7.90579C4.20401 7.75957 4.35009 7.60837 4.50126 7.45972C4.76585 7.71684 5.02526 7.98382 5.28986 8.24338C5.33523 8.29375 5.39057 8.33913 5.41569 8.40466C5.44601 8.52818 5.30502 8.66422 5.18152 8.60876C5.05802 8.55331 4.95985 8.45502 4.84133 8.38949C4.64235 8.26608 4.41051 8.18793 4.17379 8.21571C4.10574 8.1452 4.03015 8.07957 3.96973 8.00407C3.98976 7.96368 4.02263 7.936 4.05284 7.90579" fill="white"/>
<path fill-rule="evenodd" clip-rule="evenodd" d="M2.95549 9.00455C3.23775 8.72738 3.51493 8.44768 3.79465 8.16797C4.32388 8.69971 4.85554 9.23134 5.3872 9.76054C5.67954 10.0502 5.96435 10.3452 6.25913 10.6299C6.34237 10.7231 6.45318 10.645 6.54394 10.6122C6.6346 10.5719 6.74053 10.6526 6.73799 10.7482C6.73799 10.8137 6.70013 10.8692 6.6574 10.9147C6.31469 11.2548 5.97697 11.595 5.63681 11.9352C5.58888 11.983 5.52833 12.0309 5.45782 12.0259C5.37967 12.0335 5.30407 11.9579 5.3116 11.8822C5.31669 11.8016 5.37967 11.7361 5.37967 11.6554C5.38476 11.5873 5.32676 11.5445 5.28647 11.4991C4.48261 10.7004 3.68628 9.89414 2.87988 9.09775C2.90512 9.06498 2.92781 9.03476 2.95549 9.00455" fill="white"/>
<path fill-rule="evenodd" clip-rule="evenodd" d="M21.8653 8.75745C22.1776 9.06483 22.4875 9.37475 22.795 9.68722C22.8931 9.78053 22.8226 9.96693 22.6916 9.98718C22.5707 10.0048 22.4775 9.90904 22.3843 9.84606C22.1349 9.67461 21.84 9.51344 21.5277 9.56635C21.4445 9.49075 21.364 9.41261 21.2959 9.32449C21.4899 9.13799 21.6764 8.94639 21.8653 8.75745" fill="white"/>
<path fill-rule="evenodd" clip-rule="evenodd" d="M2.69618 9.26892C2.78947 9.30423 2.84735 9.41005 2.92294 9.47557C2.88265 9.7679 3.0211 10.0425 3.18489 10.2719C3.2328 10.345 3.29068 10.413 3.32089 10.4961C3.35376 10.607 3.24542 10.7229 3.13453 10.7103C3.07156 10.7103 3.02873 10.6574 2.98845 10.6196C2.71378 10.3424 2.43678 10.0703 2.16211 9.79313C2.34349 9.62168 2.51236 9.43783 2.69618 9.26892" fill="white"/>
<path fill-rule="evenodd" clip-rule="evenodd" d="M8.30302 10.6903C8.80446 10.529 9.34874 10.5114 9.86535 10.6172C10.7424 10.8037 11.5184 11.3177 12.1384 11.9552C12.7457 12.57 13.2295 13.3412 13.3934 14.2004C13.484 14.6716 13.4639 15.1654 13.3279 15.6266C13.1943 16.0827 12.9523 16.5035 12.6474 16.8664C12.5163 16.7278 12.3728 16.5993 12.2467 16.4582C12.2467 16.3901 12.2895 16.3321 12.3023 16.2667C12.3702 16.045 12.3023 15.7955 12.1333 15.6341C10.8886 14.3869 9.63864 13.1395 8.39368 11.8922C8.28033 11.7763 8.13676 11.6831 7.97293 11.6705C7.83933 11.6529 7.70827 11.7007 7.5823 11.746C7.53182 11.7738 7.49916 11.7109 7.4664 11.6855C7.36556 11.5773 7.25465 11.479 7.15391 11.3681C7.15391 11.3606 7.15137 11.3454 7.15137 11.3379C7.48655 11.0506 7.87973 10.8264 8.30302 10.6903" fill="white"/>
<path fill-rule="evenodd" clip-rule="evenodd" d="M11.7012 10.5514C11.8171 10.5891 11.9229 10.6471 12.0313 10.7026C12.4371 10.8992 12.8401 11.1033 13.2484 11.3023C13.2836 11.32 13.3164 11.3477 13.3467 11.3754C13.6893 11.7231 14.0347 12.0658 14.3798 12.4111C14.5664 12.6102 14.8006 12.7638 15.0552 12.8596C15.2341 12.9276 15.4357 12.9276 15.6146 12.8645C15.7054 12.8343 15.8037 12.7991 15.8994 12.8293C15.9952 12.8672 16.0657 12.9629 16.0732 13.0662C16.0657 13.2048 15.9775 13.3207 15.8843 13.4164C15.5769 13.7289 15.2643 14.0389 14.9519 14.3463C14.8688 14.4219 14.773 14.5 14.657 14.5126C14.4908 14.5377 14.3269 14.3615 14.3773 14.2001C14.4252 14.0363 14.4908 13.87 14.4631 13.6987C14.4227 13.4113 14.2589 13.1569 14.0774 12.9377C13.3946 12.2523 12.7091 11.5694 12.0237 10.8815C11.9178 10.7706 11.8019 10.6698 11.7012 10.5514" fill="white"/>
<path fill-rule="evenodd" clip-rule="evenodd" d="M19.3865 11.237C19.5757 11.048 19.7671 10.859 19.9562 10.6676C20.0393 10.7356 20.1124 10.8163 20.1905 10.8919C20.1577 11.1438 20.2435 11.3932 20.3745 11.6049C20.4424 11.7259 20.5407 11.8292 20.6013 11.9551C20.634 12.0157 20.6114 12.0836 20.5887 12.1441C20.9062 12.3584 21.1859 12.6304 21.4077 12.9404C21.6622 13.3008 21.841 13.7291 21.831 14.1776C21.8335 14.6035 21.6495 15.0117 21.3799 15.3342C21.3068 15.2586 21.2212 15.1906 21.1581 15.105C21.1708 15.0117 21.2161 14.921 21.1934 14.8278C21.1683 14.7068 21.0749 14.6211 20.9918 14.5379C20.3266 13.8752 19.6638 13.2126 19.0011 12.5498C18.9356 12.4843 18.8574 12.4239 18.7641 12.4164C18.676 12.4062 18.5878 12.4314 18.5072 12.4591C18.429 12.3861 18.351 12.3079 18.2754 12.2323C18.6105 11.9451 19.0464 11.7611 19.4925 11.7838C19.6638 11.7788 19.8302 11.8191 19.9965 11.8568C19.7949 11.6477 19.5806 11.4512 19.3865 11.237" fill="white"/>
<path fill-rule="evenodd" clip-rule="evenodd" d="M6.20079 12.7159C6.33938 12.3304 6.55855 11.9776 6.81813 11.6626C6.94664 11.7938 7.08279 11.9196 7.20876 12.0532C7.23389 12.1339 7.16847 12.2095 7.15585 12.2901C7.09032 12.5068 7.176 12.7437 7.33484 12.8999C8.55945 14.1271 9.7867 15.3517 11.014 16.5788C11.1324 16.7074 11.276 16.8283 11.4574 16.8561C11.6187 16.8813 11.7775 16.8258 11.9262 16.7704C12.0622 16.9064 12.1984 17.04 12.3344 17.1761C12.037 17.4356 11.6917 17.6397 11.3239 17.7834C10.7694 17.9975 10.1496 18.0328 9.56742 17.9044C8.68287 17.7102 7.90425 17.1786 7.28182 16.531C6.70732 15.9288 6.24352 15.1904 6.0798 14.3664C5.969 13.8197 6.00431 13.2401 6.20079 12.7159" fill="white"/>
<path fill-rule="evenodd" clip-rule="evenodd" d="M17.6523 13.4444C17.6826 13.0614 17.8514 12.696 18.1035 12.4087C18.1764 12.4843 18.2547 12.5599 18.3302 12.6355C18.3025 12.7263 18.2596 12.822 18.2849 12.9176C18.3 13.0034 18.3579 13.0715 18.4184 13.1319C19.0837 13.7946 19.7439 14.4598 20.4092 15.1225C20.4873 15.1981 20.5629 15.2889 20.6738 15.3191C20.7746 15.3469 20.8779 15.3115 20.9761 15.2813C21.0518 15.357 21.13 15.4326 21.203 15.5131C20.8854 15.7751 20.4898 15.9592 20.0715 15.9592C19.6658 15.9768 19.2677 15.8331 18.93 15.6215C18.6855 15.4653 18.4613 15.2763 18.2748 15.057C18.363 15.3519 18.3429 15.6821 18.2042 15.9592C18.0682 16.2313 17.8565 16.4531 17.6473 16.6673C17.5717 16.5917 17.4936 16.5134 17.4154 16.4379C17.4811 16.332 17.5239 16.2061 17.4835 16.0826C17.4357 15.9566 17.3323 15.8659 17.2416 15.7702C17.0551 15.5811 16.8662 15.3922 16.6771 15.2032C16.5663 15.0998 16.4477 14.9814 16.289 14.9713C16.1958 14.9614 16.1127 15.0092 16.0345 15.0546C15.9565 14.979 15.8809 14.9008 15.8027 14.8253C16.105 14.5204 16.4503 14.2054 16.8938 14.1499C17.2567 14.0894 17.6221 14.2457 17.8791 14.4952C17.7178 14.1726 17.6171 13.8097 17.6523 13.4444" fill="white"/>
<path fill-rule="evenodd" clip-rule="evenodd" d="M4.36992 14.3236C4.44553 14.2505 4.54382 14.1951 4.64964 14.1875C4.82354 14.1774 4.98238 14.3588 4.93435 14.5277C4.8966 14.6562 4.8034 14.7695 4.79831 14.9082C4.80838 15.0291 4.90922 15.1148 4.98991 15.1955C6.28259 16.4881 7.57782 17.7833 8.8706 19.076C8.93115 19.1339 8.99912 19.1918 9.0848 19.1994C9.23091 19.1994 9.34437 19.0911 9.48296 19.0584C9.64922 19.0256 9.81559 19.1768 9.80807 19.343C9.80298 19.4565 9.73999 19.5598 9.66184 19.6403C9.01174 20.2905 8.35898 20.9432 7.70888 21.5933C7.6232 21.6764 7.51738 21.7495 7.39395 21.7495C7.24275 21.7546 7.10161 21.611 7.11412 21.4572C7.12939 21.3061 7.25526 21.1851 7.25791 21.0288C7.25282 20.9356 7.17965 20.865 7.12176 20.7996C6.54217 20.2175 5.96003 19.6403 5.38299 19.0609C5.36029 19.0433 5.33007 18.9928 5.29731 19.028C5.09574 19.2221 4.90169 19.4263 4.70001 19.6202C4.56397 19.4842 4.42792 19.3481 4.29177 19.2095C4.48582 19.0054 4.68739 18.8063 4.89151 18.6098C4.89151 18.5997 4.89416 18.5771 4.89416 18.5669C4.34723 18.0303 3.81048 17.4859 3.2662 16.9442C3.18307 16.8661 3.10481 16.7679 2.98902 16.7401C2.83028 16.7299 2.70675 16.8535 2.55809 16.8812C2.36659 16.914 2.19269 16.6973 2.25822 16.5183C2.29099 16.3923 2.39172 16.3016 2.47994 16.216C3.1099 15.5835 3.7424 14.956 4.36992 14.3236" fill="white"/>
<path fill-rule="evenodd" clip-rule="evenodd" d="M15.6218 15.0043C15.9242 15.2864 16.209 15.5888 16.5064 15.8786C17.0709 16.4455 17.6379 17.0125 18.2048 17.5794C18.2451 17.6123 18.2829 17.6576 18.3358 17.6676C18.4443 17.6778 18.5298 17.5719 18.6383 17.592C18.7039 17.6147 18.7642 17.6778 18.7568 17.7508C18.7568 17.8491 18.6735 17.9171 18.613 17.9827C18.2578 18.333 17.9074 18.6882 17.5522 19.0385C17.474 19.1242 17.3278 19.0813 17.28 18.9856C17.2095 18.8672 17.401 18.7411 17.3003 18.6328C16.5694 17.9046 15.8386 17.1738 15.1103 16.443C15.0574 16.3952 15.0121 16.3347 14.949 16.3019C14.8407 16.2716 14.755 16.3624 14.6542 16.375C14.5761 16.3675 14.5005 16.2994 14.5055 16.2187C14.4979 16.1305 14.5635 16.0627 14.6188 16.0047C14.9541 15.6719 15.2893 15.3369 15.6218 15.0043" fill="white"/>
<path fill-rule="evenodd" clip-rule="evenodd" d="M13.374 17.2495C13.6737 16.9546 13.966 16.6497 14.2709 16.3599C14.5404 16.632 14.8126 16.9017 15.0821 17.1737C15.1728 17.262 15.0771 17.3956 14.9839 17.4359C14.9184 17.4434 14.8578 17.4031 14.7998 17.378C14.5682 17.2644 14.3011 17.2091 14.0467 17.2746C13.8854 17.3073 13.7443 17.398 13.6032 17.4811C13.5276 17.4031 13.4522 17.3251 13.374 17.2495" fill="white"/>
<path fill-rule="evenodd" clip-rule="evenodd" d="M12.1491 18.4764C12.497 18.1237 12.8498 17.7784 13.1975 17.4281C13.7619 17.9851 14.3188 18.552 14.8859 19.1089C15.3193 19.5398 15.7477 19.9758 16.1836 20.4042C15.846 20.7518 15.4983 21.0895 15.1605 21.4347C15.1127 21.4877 15.0446 21.5179 14.9816 21.5456C14.9186 21.523 14.8405 21.5003 14.8203 21.4298C14.7826 21.3112 14.906 21.218 14.891 21.1021C14.8405 21.0039 14.7523 20.9332 14.6767 20.8552C14.0643 20.2428 13.4521 19.6306 12.8396 19.0181C12.7313 18.9174 12.6406 18.7965 12.512 18.7209C12.3835 18.6956 12.2676 18.8594 12.1442 18.7712C12.0384 18.7032 12.0686 18.552 12.1491 18.4764" fill="white"/>
<path fill-rule="evenodd" clip-rule="evenodd" d="M14.5934 17.8515C14.5531 17.7482 14.6488 17.6272 14.7572 17.6448C14.8075 17.6574 14.8453 17.6902 14.8806 17.7255C15.1451 17.9927 15.4122 18.2547 15.6742 18.5218C15.7598 18.61 15.8707 18.6856 15.906 18.8115C15.8732 18.867 15.8379 18.9426 15.7624 18.9501C15.6388 18.9627 15.5482 18.8644 15.4373 18.8241C15.2861 18.7485 15.1023 18.7485 14.9512 18.8267C14.8706 18.746 14.7925 18.6653 14.7118 18.5873C14.7672 18.4689 14.7925 18.3328 14.7521 18.2067C14.7219 18.0782 14.6362 17.9724 14.5934 17.8515" fill="white"/>
<path fill-rule="evenodd" clip-rule="evenodd" d="M16.2132 18.5092C16.2661 18.4286 16.3946 18.416 16.4576 18.4916C16.7297 18.7663 17.0069 19.0384 17.2764 19.3156C16.9665 19.618 16.6693 19.9354 16.3518 20.2303C16.2788 20.1521 16.2006 20.0765 16.125 19.9984C16.3946 19.6659 16.4324 19.1845 16.251 18.8015C16.2182 18.7108 16.1477 18.5999 16.2132 18.5092" fill="white"/>
<path fill-rule="evenodd" clip-rule="evenodd" d="M0.00113105 19.5122C0.101865 19.4719 0.197721 19.4088 0.308634 19.4113C0.442133 19.4366 0.525371 19.555 0.61847 19.6431C1.88613 20.9056 3.14859 22.1706 4.41359 23.4329C4.48411 23.5112 4.57487 23.5892 4.58749 23.7001C4.5824 23.8084 4.5244 23.9042 4.47923 24C2.98476 23.9974 1.49305 23.9974 0.00113105 23.9974C0.00113105 22.5032 -0.00141381 21.0063 0.00113105 19.5122" fill="#8C8C8C"/>
<path fill-rule="evenodd" clip-rule="evenodd" d="M11.7317 19.4441C12.1802 19.4063 12.6263 19.5675 12.9967 19.812C13.2865 20.006 13.5561 20.2303 13.7627 20.51C14.0098 20.8401 14.1609 21.2433 14.1635 21.659C14.1709 22.1328 13.9845 22.6115 13.6469 22.9466C13.5686 22.871 13.493 22.7955 13.4175 22.7173C13.4628 22.6318 13.5157 22.541 13.5007 22.4402C13.4755 22.289 13.3722 22.1654 13.2688 22.0622C12.7019 21.4952 12.1348 20.9283 11.5679 20.3612C11.452 20.2479 11.3209 20.1244 11.1495 20.1119C11.0563 20.1018 10.9731 20.1496 10.8951 20.195C10.8219 20.1143 10.7212 20.0539 10.6758 19.9531C10.953 19.6683 11.331 19.4692 11.7317 19.4441" fill="white"/>
<path fill-rule="evenodd" clip-rule="evenodd" d="M21.916 22.5739C21.916 22.1218 22.2827 21.7883 22.7161 21.7883C23.1453 21.7883 23.5119 22.1218 23.5119 22.5739C23.5119 23.0303 23.1453 23.3637 22.7161 23.3637C22.2827 23.3637 21.916 23.0303 21.916 22.5739V22.5739ZM22.716 23.2323C23.0722 23.2323 23.3534 22.9532 23.3534 22.5739C23.3534 22.2009 23.0722 21.9196 22.716 21.9196C22.3555 21.9196 22.0742 22.2009 22.0742 22.5739C22.0742 22.9532 22.3555 23.2323 22.716 23.2323V23.2323ZM22.5486 23.0304H22.4111V22.1219H22.7569C22.9716 22.1219 23.0778 22.201 23.0778 22.3802C23.0778 22.5429 22.9757 22.6137 22.8424 22.6304L23.1008 23.0304H22.9465L22.707 22.6365H22.5486V23.0304V23.0304ZM22.7135 22.5199C22.8301 22.5199 22.9343 22.5116 22.9343 22.372C22.9343 22.2595 22.8322 22.2387 22.7364 22.2387H22.5488V22.5199H22.7135V22.5199Z" fill="white"/>
</svg>
