<svg width="322" height="322" viewBox="0 0 322 322" fill="none" xmlns="http://www.w3.org/2000/svg">
<path d="M105.828 0.5H90.7812V20.5629L0.5 20.564V140.938H90.7812V161H110.844V321.5H140.938V161H181.063V321.5H211.157V161H231.219V130.906H321.5V115.859C321.5 91.6728 304.911 62.4559 270.855 39.9788C236.401 17.2395 183.126 0.5 105.828 0.5ZM201.125 130.906H120.875V30.8244C185.52 32.8377 228.022 47.7661 254.278 65.0954C272.654 77.2237 282.734 90.1908 287.599 100.812H201.125V130.906ZM90.7812 110.844H30.5938V50.6574L90.7812 50.6566V110.844Z" fill="#252524"/>
</svg>
